<svg width="199" height="44" viewBox="0 0 199 44" fill="none" xmlns="http://www.w3.org/2000/svg">
<path d="M47 30.6066C44.3478 33.2588 40.7507 34.7488 37 34.7488C33.2493 34.7488 29.6522 33.2588 27 30.6066C24.3478 27.9545 22.8578 24.3573 22.8578 20.6066C22.8578 16.8559 24.3478 13.2588 27 10.6066L30.9188 14.5254C29.3059 16.1382 28.3998 18.3257 28.3998 20.6066C28.3998 22.8875 29.3059 25.075 30.9188 26.6879C32.5316 28.3007 34.7191 29.2068 37 29.2068C39.2809 29.2068 41.4684 28.3007 43.0812 26.6879L47 30.6066Z" fill="white"/>
<path d="M29.5 13.1066C31.4892 11.1175 34.187 10 37 10C39.8131 10 42.5109 11.1175 44.5 13.1066C46.4892 15.0957 47.6067 17.7936 47.6067 20.6066C47.6067 23.4197 46.4892 26.1175 44.5 28.1066L41.561 25.1675C42.7706 23.9579 43.4502 22.3173 43.4502 20.6066C43.4502 18.8959 42.7706 17.2553 41.561 16.0457C40.3513 14.8361 38.7107 14.1565 37 14.1565C35.2894 14.1565 33.6487 14.8361 32.4391 16.0457L29.5 13.1066Z" fill="white"/>
<path d="M75.1422 30.6066C72.49 33.2588 68.8929 34.7488 65.1422 34.7488C61.3914 34.7488 57.7943 33.2588 55.1421 30.6066C52.49 27.9545 51 24.3573 51 20.6066C51 16.8559 52.49 13.2588 55.1421 10.6066L59.0609 14.5254C57.4481 16.1382 56.542 18.3257 56.542 20.6066C56.542 22.8875 57.4481 25.075 59.0609 26.6879C60.6738 28.3007 62.8612 29.2068 65.1422 29.2068C67.4231 29.2068 69.6105 28.3007 71.2234 26.6879L75.1422 30.6066Z" fill="white"/>
<path d="M57.6422 13.1066C59.6313 11.1175 62.3291 10 65.1422 10C67.9552 10 70.6531 11.1175 72.6422 13.1066C74.6313 15.0957 75.7488 17.7936 75.7488 20.6066C75.7488 23.4197 74.6313 26.1175 72.6422 28.1066L69.7031 25.1675C70.9127 23.9579 71.5923 22.3173 71.5923 20.6066C71.5923 18.8959 70.9128 17.2553 69.7031 16.0457C68.4935 14.8361 66.8529 14.1565 65.1422 14.1565C63.4315 14.1565 61.7909 14.8361 60.5813 16.0457L57.6422 13.1066Z" fill="white"/>
<path d="M8.064 13.724V21.392H20.232V25.352H8.064V35H3.384V9.8H21.78V13.724H8.064Z" fill="#F5F5F5"/>
<path d="M79.384 9.8H90.4C93.088 9.8 95.476 10.328 97.564 11.384C99.652 12.416 101.272 13.892 102.424 15.812C103.576 17.708 104.152 19.904 104.152 22.4C104.152 24.896 103.576 27.104 102.424 29.024C101.272 30.92 99.652 32.396 97.564 33.452C95.476 34.484 93.088 35 90.4 35H79.384V9.8ZM90.184 31.04C92.032 31.04 93.652 30.692 95.044 29.996C96.46 29.276 97.54 28.268 98.284 26.972C99.052 25.652 99.436 24.128 99.436 22.4C99.436 20.672 99.052 19.16 98.284 17.864C97.54 16.544 96.46 15.536 95.044 14.84C93.652 14.12 92.032 13.76 90.184 13.76H84.064V31.04H90.184ZM113.806 13.724V21.392H125.974V25.352H113.806V35H109.126V9.8H127.522V13.724H113.806ZM150.948 31.076V35H132.048V9.8H150.444V13.724H136.728V20.276H148.896V24.128H136.728V31.076H150.948ZM175.065 31.076V35H156.165V9.8H174.561V13.724H160.845V20.276H173.013V24.128H160.845V31.076H175.065ZM180.282 9.8H184.962V31.04H198.138V35H180.282V9.8Z" fill="#F5F5F5"/>
</svg>
